<svg width="25" height="24" viewBox="0 0 25 24" fill="none" xmlns="http://www.w3.org/2000/svg">
<path d="M4.70007 8C5.25236 8 5.70007 7.55228 5.70007 7C5.70007 6.44772 5.25236 6 4.70007 6C4.14779 6 3.70007 6.44772 3.70007 7C3.70007 7.55228 4.14779 8 4.70007 8Z" fill="#484C52"/>
<path d="M4.70007 13C5.25236 13 5.70007 12.5523 5.70007 12C5.70007 11.4477 5.25236 11 4.70007 11C4.14779 11 3.70007 11.4477 3.70007 12C3.70007 12.5523 4.14779 13 4.70007 13Z" fill="#484C52"/>
<path d="M4.70007 18C5.25236 18 5.70007 17.5523 5.70007 17C5.70007 16.4477 5.25236 16 4.70007 16C4.14779 16 3.70007 16.4477 3.70007 17C3.70007 17.5523 4.14779 18 4.70007 18Z" fill="#484C52"/>
<path d="M20.7601 11H8.64007C8.12093 11 7.70007 11.4209 7.70007 11.94V12.06C7.70007 12.5791 8.12093 13 8.64007 13H20.7601C21.2792 13 21.7001 12.5791 21.7001 12.06V11.94C21.7001 11.4209 21.2792 11 20.7601 11Z" fill="#484C52"/>
<path d="M20.7601 16H8.64007C8.12093 16 7.70007 16.4209 7.70007 16.94V17.06C7.70007 17.5791 8.12093 18 8.64007 18H20.7601C21.2792 18 21.7001 17.5791 21.7001 17.06V16.94C21.7001 16.4209 21.2792 16 20.7601 16Z" fill="#484C52"/>
<path d="M20.7601 6H8.64007C8.12093 6 7.70007 6.42085 7.70007 6.94V7.06C7.70007 7.57915 8.12093 8 8.64007 8H20.7601C21.2792 8 21.7001 7.57915 21.7001 7.06V6.94C21.7001 6.42085 21.2792 6 20.7601 6Z" fill="#484C52"/>
</svg>
