<svg width="69" height="24" viewBox="0 0 69 24" fill="none" xmlns="http://www.w3.org/2000/svg">
<path fill-rule="evenodd" clip-rule="evenodd" d="M31.286 1.21065C31.6471 0.929784 32.1527 0.929784 32.5138 1.21065L41.5138 8.21065C41.7574 8.4001 41.8999 8.69141 41.8999 9V20C41.8999 20.7957 41.5838 21.5587 41.0212 22.1213C40.4586 22.6839 39.6956 23 38.8999 23H24.8999C24.1043 23 23.3412 22.6839 22.7786 22.1213C22.216 21.5587 21.8999 20.7957 21.8999 20V9C21.8999 8.69141 22.0424 8.4001 22.286 8.21065L31.286 1.21065ZM23.8999 9.48908V20C23.8999 20.2652 24.0053 20.5196 24.1928 20.7071C24.3803 20.8946 24.6347 21 24.8999 21H38.8999C39.1651 21 39.4195 20.8946 39.607 20.7071C39.7945 20.5196 39.8999 20.2652 39.8999 20V9.48908L31.8999 3.26686L23.8999 9.48908Z" fill="#484C52"/>
<path fill-rule="evenodd" clip-rule="evenodd" d="M27.8999 12C27.8999 11.4477 28.3476 11 28.8999 11H34.8999C35.4522 11 35.8999 11.4477 35.8999 12V22C35.8999 22.5523 35.4522 23 34.8999 23C34.3476 23 33.8999 22.5523 33.8999 22V13H29.8999V22C29.8999 22.5523 29.4522 23 28.8999 23C28.3476 23 27.8999 22.5523 27.8999 22V12Z" fill="#484C52"/>
</svg>
