<svg width="25" height="24" viewBox="0 0 25 24" fill="none" xmlns="http://www.w3.org/2000/svg">
<path d="M13.1701 22C12.6872 21.9994 12.2239 21.8091 11.8801 21.47L5.4701 15.05C5.30561 14.8864 5.2031 14.6708 5.1801 14.44L4.3001 5.08999C4.28663 4.94352 4.30564 4.79589 4.35576 4.65761C4.40589 4.51933 4.4859 4.3938 4.5901 4.28999C4.69391 4.18579 4.81944 4.10578 4.95772 4.05565C5.096 4.00553 5.24363 3.98652 5.3901 3.99999L14.7401 4.87999C14.9709 4.90299 15.1866 5.0055 15.3501 5.16999L21.7701 11.58C22.1102 11.9211 22.3012 12.3832 22.3012 12.865C22.3012 13.3467 22.1102 13.8088 21.7701 14.15L14.4501 21.47C14.11 21.8085 13.65 21.999 13.1701 22ZM7.1701 13.89L13.1701 19.89L20.2201 12.84L14.2201 6.83999L6.4101 6.10999L7.1701 13.89Z" fill="#231F20"/>
<path d="M10.8002 12C11.6286 12 12.3002 11.3284 12.3002 10.5C12.3002 9.67157 11.6286 9 10.8002 9C9.97174 9 9.30017 9.67157 9.30017 10.5C9.30017 11.3284 9.97174 12 10.8002 12Z" fill="#231F20"/>
</svg>
